# Blender 4.3.2
# www.blender.org
mtllib mybeach_shell2.mtl
o Cylinder
v 0.138631 -0.494371 -0.067764
v -0.179958 -0.444419 0.013831
v 0.138768 -0.493616 -0.067741
v -0.178050 -0.433854 0.014157
v 0.138958 -0.492890 -0.067580
v -0.175384 -0.423696 0.016404
v 0.139196 -0.492220 -0.067288
v -0.172062 -0.414334 0.020487
v 0.139471 -0.491633 -0.066876
v -0.160948 -0.427460 0.014107
v 0.139774 -0.491152 -0.066360
v -0.121200 -0.406133 0.021972
v 0.140092 -0.490794 -0.065760
v -0.124424 -0.399845 0.033669
v 0.140413 -0.490574 -0.065098
v -0.128436 -0.395480 0.044282
v 0.140726 -0.490499 -0.064400
v -0.128987 -0.393476 0.058453
v 0.141017 -0.490574 -0.063694
v -0.131501 -0.393554 0.068869
v 0.141276 -0.490794 -0.063005
v -0.131712 -0.395994 0.080147
v 0.141493 -0.491152 -0.062361
v -0.133348 -0.400356 0.088862
v 0.141660 -0.491633 -0.061786
v -0.134211 -0.406630 0.097058
v 0.141769 -0.492220 -0.061303
v -0.136077 -0.414334 0.104190
v 0.141818 -0.492890 -0.060930
v -0.135399 -0.423696 0.109409
v 0.141803 -0.493616 -0.060681
v -0.135603 -0.433854 0.112891
v 0.141726 -0.494371 -0.060566
v -0.136679 -0.444419 0.114499
v 0.141590 -0.495127 -0.060589
v -0.138587 -0.454984 0.114174
v 0.141399 -0.495853 -0.060750
v -0.141253 -0.465142 0.111926
v 0.141161 -0.496523 -0.061042
v -0.144575 -0.474504 0.107843
v 0.140886 -0.497109 -0.061454
v -0.148425 -0.482711 0.102082
v 0.140584 -0.497591 -0.061970
v -0.152656 -0.489445 0.094863
v 0.140266 -0.497949 -0.062571
v -0.157104 -0.494449 0.086465
v 0.139944 -0.498169 -0.063232
v -0.161598 -0.497531 0.077210
v 0.139632 -0.498244 -0.063930
v -0.165967 -0.498571 0.067453
v 0.139340 -0.498169 -0.064637
v -0.170042 -0.497531 0.057571
v 0.139081 -0.497949 -0.065325
v -0.173666 -0.494449 0.047941
v 0.138864 -0.497591 -0.065969
v -0.176700 -0.489445 0.038935
v 0.138698 -0.497109 -0.066544
v -0.179028 -0.482711 0.030899
v 0.138588 -0.496523 -0.067027
v -0.180561 -0.474504 0.024141
v 0.138540 -0.495853 -0.067400
v -0.181238 -0.465142 0.018921
v 0.138554 -0.495127 -0.067649
v -0.181035 -0.454984 0.015440
vn -0.2368 0.0726 -0.9689
vn -0.1953 0.2604 -0.9455
vn -0.1410 0.4374 -0.8882
vn 0.1975 -0.2692 0.9426
vn -0.1127 0.5299 -0.8405
vn 0.1370 0.8846 -0.4457
vn 0.2019 0.9285 -0.3116
vn 0.2837 0.9503 -0.1282
vn 0.3717 0.9243 0.0869
vn 0.4120 0.8898 0.1962
vn 0.4939 0.7440 0.4501
vn 0.5180 0.6573 0.5474
vn 0.5422 0.5032 0.6729
vn 0.5475 0.4374 0.7134
vn 0.5518 0.2604 0.7923
vn 0.5402 0.0726 0.8384
vn 0.5132 -0.1189 0.8500
vn 0.4717 -0.3067 0.8267
vn 0.4174 -0.4836 0.7693
vn 0.3524 -0.6428 0.6801
vn 0.2792 -0.7783 0.5625
vn 0.2005 -0.8847 0.4209
vn 0.1195 -0.9579 0.2609
vn 0.0392 -0.9953 0.0886
vn -0.0374 -0.9953 -0.0894
vn -0.1071 -0.9579 -0.2662
vn -0.1675 -0.8847 -0.4351
vn -0.2161 -0.7783 -0.5896
vn -0.2511 -0.6428 -0.7237
vn -0.2711 -0.4836 -0.8322
vn 0.0397 -0.4112 0.9107
vn -0.2754 -0.3067 -0.9111
vn -0.2638 -0.1189 -0.9572
vn 0.9080 -0.1520 -0.3904
vn -0.0332 -0.2076 0.9777
vn -0.1331 -0.0065 0.9911
vn -0.2432 0.1702 0.9549
vn -0.3496 0.3100 0.8841
vn -0.4448 0.4114 0.7956
vn -0.5268 0.4796 0.7018
vn -0.5966 0.5216 0.6099
vn -0.6562 0.5437 0.5232
vn -0.7078 0.5506 0.4426
vn -0.7529 0.5457 0.3679
vn -0.7931 0.5310 0.2985
vn -0.8292 0.5077 0.2336
vn -0.8620 0.4765 0.1726
vn -0.8920 0.4372 0.1148
vn -0.9192 0.3893 0.0598
vn -0.9434 0.3316 0.0072
vn -0.9640 0.2625 -0.0427
vn -0.9796 0.1797 -0.0895
vn -0.9880 0.0806 -0.1319
vn -0.9851 -0.0377 -0.1676
vn -0.9652 -0.1771 -0.1923
vn -0.9822 0.0808 -0.1697
vn -0.9962 0.0300 -0.0818
vn -0.8558 0.5086 0.0939
vn -0.9283 -0.2953 -0.2262
vn -0.6205 -0.7795 0.0861
vn -0.0394 0.4096 -0.9114
vn -0.9838 -0.0803 -0.1605
vn -0.9686 -0.1822 -0.1691
vt 1.000000 0.500000
vt 1.000000 1.000000
vt 0.968750 1.000000
vt 0.968750 0.500000
vt 0.937500 1.000000
vt 0.937500 0.500000
vt 0.906250 1.000000
vt 0.906250 0.500000
vt 0.875000 1.000000
vt 0.875000 0.500000
vt 0.843750 1.000000
vt 0.843750 0.500000
vt 0.812500 1.000000
vt 0.812500 0.500000
vt 0.781250 1.000000
vt 0.781250 0.500000
vt 0.750000 1.000000
vt 0.750000 0.500000
vt 0.718750 1.000000
vt 0.718750 0.500000
vt 0.687500 1.000000
vt 0.687500 0.500000
vt 0.656250 1.000000
vt 0.656250 0.500000
vt 0.625000 1.000000
vt 0.625000 0.500000
vt 0.593750 1.000000
vt 0.593750 0.500000
vt 0.562500 1.000000
vt 0.562500 0.500000
vt 0.531250 1.000000
vt 0.531250 0.500000
vt 0.500000 1.000000
vt 0.500000 0.500000
vt 0.468750 1.000000
vt 0.468750 0.500000
vt 0.437500 1.000000
vt 0.437500 0.500000
vt 0.406250 1.000000
vt 0.406250 0.500000
vt 0.375000 1.000000
vt 0.375000 0.500000
vt 0.343750 1.000000
vt 0.343750 0.500000
vt 0.312500 1.000000
vt 0.312500 0.500000
vt 0.281250 1.000000
vt 0.281250 0.500000
vt 0.250000 1.000000
vt 0.250000 0.500000
vt 0.218750 1.000000
vt 0.218750 0.500000
vt 0.187500 1.000000
vt 0.187500 0.500000
vt 0.156250 1.000000
vt 0.156250 0.500000
vt 0.125000 1.000000
vt 0.125000 0.500000
vt 0.093750 1.000000
vt 0.093750 0.500000
vt 0.062500 1.000000
vt 0.062500 0.500000
vt 0.383337 0.449553
vt 0.341844 0.471731
vt 0.449553 0.383337
vt 0.031250 1.000000
vt 0.031250 0.500000
vt 0.000000 1.000000
vt 0.000000 0.500000
vt 0.750000 0.490000
vt 0.796822 0.485388
vt 0.841844 0.471731
vt 0.883337 0.449553
vt 0.919706 0.419706
vt 0.949553 0.383337
vt 0.971731 0.341844
vt 0.985388 0.296822
vt 0.990000 0.250000
vt 0.985388 0.203178
vt 0.971731 0.158156
vt 0.949553 0.116663
vt 0.919706 0.080294
vt 0.883337 0.050447
vt 0.841844 0.028269
vt 0.796822 0.014612
vt 0.750000 0.010000
vt 0.703178 0.014612
vt 0.658156 0.028269
vt 0.616663 0.050447
vt 0.580294 0.080294
vt 0.550447 0.116663
vt 0.528269 0.158156
vt 0.514612 0.203178
vt 0.510000 0.250000
vt 0.514612 0.296822
vt 0.528269 0.341844
vt 0.550447 0.383337
vt 0.580294 0.419706
vt 0.616663 0.449553
vt 0.658156 0.471731
vt 0.703178 0.485388
vt 0.296822 0.485388
vt 0.250000 0.490000
vt 0.203178 0.485388
vt 0.158156 0.471731
vt 0.116663 0.449553
vt 0.080294 0.419706
vt 0.050447 0.383337
vt 0.028269 0.341844
vt 0.014612 0.296822
vt 0.010000 0.250000
vt 0.014612 0.203178
vt 0.028269 0.158156
vt 0.050447 0.116663
vt 0.080294 0.080294
vt 0.116663 0.050447
vt 0.158156 0.028269
vt 0.203178 0.014612
vt 0.250000 0.010000
vt 0.296822 0.014612
vt 0.341844 0.028269
vt 0.383337 0.050447
vt 0.419706 0.080294
vt 0.449553 0.116663
vt 0.485388 0.203178
vt 0.471731 0.158156
vt 0.490000 0.250000
vt 0.485388 0.296822
vt 0.471731 0.341844
vt 0.419706 0.419706
s 0
f 1/1/1 2/2/1 4/3/1 3/4/1
f 3/4/2 4/3/2 6/5/2 5/6/2
f 5/6/3 6/5/3 8/7/3 7/8/3
f 7/8/4 8/7/4 10/9/4 9/10/4
f 9/10/5 10/9/5 12/11/5 11/12/5
f 11/12/6 12/11/6 14/13/6 13/14/6
f 13/14/7 14/13/7 16/15/7 15/16/7
f 15/16/8 16/15/8 18/17/8 17/18/8
f 17/18/9 18/17/9 20/19/9 19/20/9
f 19/20/10 20/19/10 22/21/10 21/22/10
f 21/22/11 22/21/11 24/23/11 23/24/11
f 23/24/12 24/23/12 26/25/12 25/26/12
f 25/26/13 26/25/13 28/27/13 27/28/13
f 27/28/14 28/27/14 30/29/14 29/30/14
f 29/30/15 30/29/15 32/31/15 31/32/15
f 31/32/16 32/31/16 34/33/16 33/34/16
f 33/34/17 34/33/17 36/35/17 35/36/17
f 35/36/18 36/35/18 38/37/18 37/38/18
f 37/38/19 38/37/19 40/39/19 39/40/19
f 39/40/20 40/39/20 42/41/20 41/42/20
f 41/42/21 42/41/21 44/43/21 43/44/21
f 43/44/22 44/43/22 46/45/22 45/46/22
f 45/46/23 46/45/23 48/47/23 47/48/23
f 47/48/24 48/47/24 50/49/24 49/50/24
f 49/50/25 50/49/25 52/51/25 51/52/25
f 51/52/26 52/51/26 54/53/26 53/54/26
f 53/54/27 54/53/27 56/55/27 55/56/27
f 55/56/28 56/55/28 58/57/28 57/58/28
f 57/58/29 58/57/29 60/59/29 59/60/29
f 59/60/30 60/59/30 62/61/30 61/62/30
f 8/63/31 6/64/31 12/65/31
f 61/62/32 62/61/32 64/66/32 63/67/32
f 63/67/33 64/66/33 2/68/33 1/69/33
f 1/70/34 3/71/34 5/72/34 7/73/34 9/74/34 11/75/34 13/76/34 15/77/34 17/78/34 19/79/34 21/80/34 23/81/34 25/82/34 27/83/34 29/84/34 31/85/34 33/86/34 35/87/34 37/88/34 39/89/34 41/90/34 43/91/34 45/92/34 47/93/34 49/94/34 51/95/34 53/96/34 55/97/34 57/98/34 59/99/34 61/100/34 63/101/34
f 6/64/35 4/102/35 12/65/35
f 4/102/36 2/103/36 12/65/36
f 2/103/37 64/104/37 12/65/37
f 64/104/38 62/105/38 12/65/38
f 62/105/39 60/106/39 12/65/39
f 60/106/40 58/107/40 12/65/40
f 58/107/41 56/108/41 12/65/41
f 56/108/42 54/109/42 12/65/42
f 54/109/43 52/110/43 12/65/43
f 52/110/44 50/111/44 12/65/44
f 50/111/45 48/112/45 12/65/45
f 48/112/46 46/113/46 12/65/46
f 46/113/47 44/114/47 12/65/47
f 44/114/48 42/115/48 12/65/48
f 42/115/49 40/116/49 12/65/49
f 40/116/50 38/117/50 12/65/50
f 38/117/51 36/118/51 12/65/51
f 36/118/52 34/119/52 12/65/52
f 34/119/53 32/120/53 12/65/53
f 32/120/54 30/121/54 12/65/54
f 30/121/55 28/122/55 12/65/55
f 28/122/56 26/123/56 12/65/56
f 26/123/57 24/124/57 20/125/57
f 24/124/58 22/126/58 20/125/58
f 20/125/59 18/127/59 26/123/59
f 18/127/60 16/128/60 14/129/60
f 12/65/61 10/130/61 8/63/61
f 18/127/62 14/129/62 26/123/62
f 14/129/63 12/65/63 26/123/63
